<svg width="169" height="169" viewBox="0 0 169 169" fill="none" xmlns="http://www.w3.org/2000/svg">
<circle cx="84.5203" cy="84.6805" r="83.8186" fill="#F4F4FE" fill-opacity="0.63"/>
<path d="M50.4136 45.1713H118.627C122.802 45.1713 126.806 46.8363 129.758 49.8001C132.71 52.7638 134.368 56.7836 134.368 60.9749V108.386C134.368 112.577 132.71 116.597 129.758 119.561C126.806 122.525 122.802 124.19 118.627 124.19H50.4136C46.2387 124.19 42.2348 122.525 39.2827 119.561C36.3306 116.597 34.6721 112.577 34.6721 108.386V60.9749C34.6721 56.7836 36.3306 52.7638 39.2827 49.8001C42.2348 46.8363 46.2387 45.1713 50.4136 45.1713ZM50.4136 50.4392C47.79 50.4392 45.4813 51.3347 43.6972 52.9151L84.5202 79.4126L125.343 52.9151C123.559 51.3347 121.25 50.4392 118.627 50.4392H50.4136ZM84.5202 85.7867L40.6014 57.1821C40.1816 58.341 39.9193 59.658 39.9193 60.9749V108.386C39.9193 111.18 41.0249 113.86 42.993 115.836C44.9611 117.812 47.6303 118.922 50.4136 118.922H118.627C121.41 118.922 124.079 117.812 126.047 115.836C128.015 113.86 129.121 111.18 129.121 108.386V60.9749C129.121 59.658 128.859 58.341 128.439 57.1821L84.5202 85.7867Z" fill="#3D4D67"/>
</svg>
