<svg width="169" height="168" viewBox="0 0 169 168" fill="none" xmlns="http://www.w3.org/2000/svg">
<circle cx="84.4355" cy="83.8186" r="83.8186" fill="#F4F4FE" fill-opacity="0.63"/>
<path fill-rule="evenodd" clip-rule="evenodd" d="M84.8048 138.098C114.59 138.098 138.715 113.973 138.715 84.1878C138.715 54.4027 114.59 30.2781 84.8048 30.2781C55.0196 30.2781 30.895 54.4027 30.895 84.1878C30.895 113.973 55.0196 138.098 84.8048 138.098ZM35.3875 84.1878C35.3875 56.8736 57.4905 34.7706 84.8048 34.7706C112.074 34.7706 134.222 56.8736 134.222 84.1878C134.222 106.021 120.071 124.53 100.394 130.91C97.9363 131.399 97.0378 129.845 97.0378 128.538L97.0603 125.779C97.0827 123.227 97.1187 119.4 97.1187 114.952C97.1187 110.28 95.5643 107.36 93.7628 105.788C104.814 104.561 116.36 100.397 116.36 81.3935C116.36 76.0025 114.478 71.555 111.283 68.1407C111.773 66.9143 113.494 61.8512 110.794 55.0676C110.794 55.0676 106.616 53.7603 97.1816 60.1441C93.1529 59.0602 88.9992 58.5104 84.8272 58.5088C80.6492 58.5133 76.4712 59.0659 72.4729 60.1441C63.0387 53.7648 58.8607 55.0676 58.8607 55.0676C56.1562 61.8512 57.8769 66.9277 58.3665 68.1407C55.0542 71.7542 53.2394 76.4918 53.29 81.3935C53.29 100.397 64.8357 104.62 75.7974 105.788C74.4047 107.014 73.0929 109.224 72.6841 112.437C69.8179 113.748 62.7108 115.873 58.2632 108.344C58.2632 108.344 55.6441 103.582 50.626 103.267C50.626 103.267 45.7741 103.267 50.298 106.295C50.298 106.295 53.5731 107.769 55.7789 113.483C55.7789 113.483 58.6451 122.333 72.401 119.368C72.401 122.046 72.437 124.67 72.4594 126.467L72.4819 128.547C72.4819 129.854 71.5834 131.413 69.126 130.919C49.4939 124.36 35.2976 105.896 35.2976 84.1968L35.3875 84.1878Z" fill="#3D4D67"/>
</svg>
