<svg width="168" height="168" viewBox="0 0 168 168" fill="none" xmlns="http://www.w3.org/2000/svg">
<circle cx="84.1814" cy="83.8186" r="83.8186" fill="#F4F4FE" fill-opacity="0.63"/>
<path d="M96.3689 70.5776C94.0893 70.5776 92.4015 71.1525 91.0801 71.8788C90.8683 71.1256 90.1723 70.5742 89.3519 70.739H79.3191C78.3272 70.5742 77.5237 71.3778 77.8296 72.4201V109.404C77.5237 110.346 78.3272 111.153 79.3191 111.086H89.3519C90.3438 111.153 91.1474 110.346 91.1474 109.354L91.144 87.002C91.1406 86.9919 91.1037 85.9227 91.7795 85.1864C92.3208 84.6014 93.2521 84.3022 94.5398 84.3022C96.6849 84.3022 97.6398 85.1797 97.9962 87.1432V109.354C97.6432 110.346 98.4467 111.153 99.4386 111.086H110.013C111.005 111.153 111.808 110.346 111.452 109.354V86.3968C111.805 74.7232 103.49 70.5776 96.3689 70.5776ZM108.214 107.723H101.234V87.1432C101.234 83.1724 98.6686 80.7113 94.5432 80.7113C92.2098 80.7113 90.3942 81.3972 89.1435 82.7488C87.4052 84.6316 87.5397 87.0188 87.9129 87.5501V107.723H81.1145V74.1684H87.5565V75.2981C87.5539 75.6347 87.6463 75.9651 87.823 76.2515C87.9998 76.5379 88.2537 76.7686 88.5557 76.9172C88.8577 77.0657 89.1955 77.126 89.5302 77.0912C89.8649 77.0564 90.1831 76.9279 90.448 76.7204L90.9187 76.3572C92.2804 75.2847 93.6892 74.1718 96.3723 74.1718C99.1494 74.1718 108.217 75.0561 108.217 86.4002L108.214 107.723ZM67.7396 53.8136C63.9672 53.8136 60.9009 56.8799 60.9009 60.6523C60.9009 64.4247 63.9672 67.4911 67.7396 67.4911C71.512 67.4911 74.5784 64.4247 74.5784 60.6523C74.5784 56.8799 71.512 53.8136 67.7396 53.8136ZM67.7396 63.9002C65.9509 63.9002 64.4917 62.441 64.4917 60.6523C64.4917 58.8636 65.9509 57.4044 67.7396 57.4044C69.5283 57.4044 70.9875 58.8636 70.9875 60.6523C70.9875 62.441 69.5283 63.9002 67.7396 63.9002ZM72.5409 70.5742H62.5618C61.57 70.5742 60.7664 71.3778 61.0152 72.4201V109.404C60.7664 110.346 61.57 111.153 62.5618 111.086H72.5409C73.5327 111.153 74.3363 110.346 74.3363 109.354V72.3696C74.3363 71.8935 74.1471 71.4368 73.8104 71.1001C73.4737 70.7634 73.017 70.5742 72.5409 70.5742ZM71.1018 107.723H64.3572V74.1684H71.1018V107.723Z" fill="#3D4D67"/>
<path d="M84.5506 30.2781C54.8219 30.2781 30.6409 54.4591 30.6409 84.1878C30.6409 113.917 54.8219 138.098 84.5506 138.098C114.279 138.098 138.46 113.917 138.46 84.1878C138.46 54.4591 114.279 30.2781 84.5506 30.2781ZM84.5506 134.507C56.8056 134.507 34.2317 111.933 34.2317 84.1878C34.2317 56.4428 56.8056 33.8689 84.5506 33.8689C112.296 33.8689 134.87 56.4428 134.87 84.1878C134.87 111.933 112.296 134.507 84.5506 134.507Z" fill="#3D4D67"/>
</svg>
